<svg xmlns="http://www.w3.org/2000/svg" width="1025.2109mm" height="400mm" viewBox="0 0 1025.2109 400"><path d="M0 0v15.947h-15.95V0h-15.947v-15.955h15.947V-31.91H0v15.955h15.962V0Z" style="fill:#ed1c24;fill-opacity:1;fill-rule:nonzero;stroke:none" transform="matrix(4.30955 0 0 -4.30955 226.16 130.33)"/><path d="M0 0v-2.615h-1.153V0h-1.504v-6.01h-3.065v4.927h2.187V0h-3.69v-6.308a.78.78 0 0 1 .777-.784l3.791.004v-2.667h1.504v6.062H0v-6.062h1.5V0Z" style="fill:#64574b;fill-opacity:1;fill-rule:nonzero;stroke:none" transform="matrix(4.30955 0 0 -4.30955 92.744 296.222)"/><path d="M0 0h-1.502v-3.067c0-.454.373-.784.774-.784h5.873v1.081H0Z" style="fill:#64574b;fill-opacity:1;fill-rule:nonzero;stroke:none" transform="matrix(4.30955 0 0 -4.30955 120.505 321.669)"/><path d="M0 0h1.501v2.961c0 .454-.372.78-.774.78h-5.976V2.663H0Z" style="fill:#64574b;fill-opacity:1;fill-rule:nonzero;stroke:none" transform="matrix(4.30955 0 0 -4.30955 180.203 338.263)"/><path d="M0 0c0 .783.554 1.417 1.233 1.417.681 0 1.234-.634 1.234-1.417 0-.784-.553-1.418-1.234-1.418C.554-1.418 0-.784 0 0m3.903 0a2.38 2.38 0 0 1-.51 1.486h.833v1.083H1.985v1.019H.482V2.569h-2.235V1.486h.828A2.397 2.397 0 0 1-1.434 0c0-1.407 1.197-2.549 2.667-2.549 1.473 0 2.67 1.142 2.67 2.549" style="fill:#64574b;fill-opacity:1;fill-rule:nonzero;stroke:none" transform="matrix(4.30955 0 0 -4.30955 113.298 307.292)"/><path d="M0 0v2.099h-1.504v-6.463H0v3.285h1.406V0Z" style="fill:#64574b;fill-opacity:1;fill-rule:nonzero;stroke:none" transform="matrix(4.30955 0 0 -4.30955 141.754 305.266)"/><path d="M0 0v.739h1.933v1.078h-5.462V.739h1.928V0c0-1.36-.898-3.08-2.22-3.999l.682-.827S-1.59-3.798-.802-2.539c.792-1.259 2.34-2.287 2.34-2.287l.681.827C.896-3.08 0-1.36 0 0" style="fill:#64574b;fill-opacity:1;fill-rule:nonzero;stroke:none" transform="matrix(4.30955 0 0 -4.30955 253.108 304.054)"/><path d="M0 0v2.337h-1.501v-9.751H0v6.335h1.602V0Z" style="fill:#64574b;fill-opacity:1;fill-rule:nonzero;stroke:none" transform="matrix(4.30955 0 0 -4.30955 272.147 306.314)"/><path d="M0 0v1.224h-1.605V0c0-3.019-2.172-4.647-2.172-4.647l.635-.773s1.507.928 2.343 2.376C.028-4.492 1.537-5.42 1.537-5.42l.636.773S0-3.019 0 0" style="fill:#64574b;fill-opacity:1;fill-rule:nonzero;stroke:none" transform="matrix(4.30955 0 0 -4.30955 295.867 301.495)"/><path d="M0 0h-1.602v2.337h-1.502v-9.751h1.502v6.335H0Z" style="fill:#64574b;fill-opacity:1;fill-rule:nonzero;stroke:none" transform="matrix(4.30955 0 0 -4.30955 322.031 306.314)"/><path d="M5.835 278.373H3.247v-.737h2.588zm0-2.279v.796H3.246v-.796H2.134v2.442c0 .272.214.577.575.577h4.24v-3.019z" style="fill:#64574b;fill-opacity:1;fill-rule:nonzero;stroke:none;stroke-width:.74222" transform="matrix(5.80629 0 0 5.80629 189.271 -1282.218)"/><path d="M0 0c.641-.932 1.72-1.666 2.493-2.01l.539.747C1.791-.518.804.93.804 2.43v.764H-.803V2.43c0-1.5-.987-2.948-2.226-3.693l.537-.747C-1.718-1.666-.641-.932 0 0" style="fill:#64574b;fill-opacity:1;fill-rule:nonzero;stroke:none" transform="matrix(4.30955 0 0 -4.30955 205.857 309.986)"/><path d="M6.948 271.85H5.832v3.86h1.116z" style="fill:#64574b;fill-opacity:1;fill-rule:nonzero;stroke:none;stroke-width:.74222" transform="matrix(5.80629 0 0 5.80629 189.271 -1282.218)"/><path d="M0 0c.664-.844 1.737-1.607 2.417-1.855l.526.747C1.813-.464.805.577.805 1.93v.34h1.832v1.079h-5.269V2.27h1.829v-.34c0-1.353-1.011-2.394-2.135-3.038l.52-.747C-1.735-1.607-.664-.844 0 0" style="fill:#64574b;fill-opacity:1;fill-rule:nonzero;stroke:none" transform="matrix(4.30955 0 0 -4.30955 162.923 310.653)"/><path d="M0 0v-1.907h-1.7v-1.081H0v-2.443h1.501V0Z" style="fill:#64574b;fill-opacity:1;fill-rule:nonzero;stroke:none" transform="matrix(4.30955 0 0 -4.30955 180.16 296.222)"/><path d="M0 0h-5.317v-10.862a2.762 2.762 0 0 1 2.742-2.772h20.79v3.825H0Z" style="fill:#64574b;fill-opacity:1;fill-rule:nonzero;stroke:none" transform="matrix(4.30955 0 0 -4.30955 424.564 219.553)"/><path d="M0 0c0 2.783 1.962 5.023 4.366 5.023 2.41 0 4.369-2.24 4.369-5.023 0-2.77-1.959-5.017-4.369-5.017C1.962-5.017 0-2.77 0 0m13.536-2.138h4.512v-11.641h5.323V9.098h-5.323V1.677h-4.41c-.261 1.344-.823 2.587-1.63 3.594h2.942v3.827H7.024v3.603H1.708V9.098h-7.92V5.271h2.932C-4.402 3.853-5.076 1.979-5.076 0c0-4.979 4.232-9.01 9.442-9.01 4.439 0 8.164 2.926 9.17 6.872" style="fill:#64574b;fill-opacity:1;fill-rule:nonzero;stroke:none" transform="matrix(4.30955 0 0 -4.30955 399.073 168.724)"/><path d="M0 0c0 2.783 1.962 5.023 4.365 5.023 2.411 0 4.369-2.24 4.369-5.023 0-2.77-1.958-5.017-4.369-5.017C1.962-5.017 0-2.77 0 0m18.325.214v-3.089h-5.013c.318.9.493 1.87.493 2.875 0 .072-.007.143-.008.214zm-7.058-6.363h7.058v-2.623l5.524-.003V9.098h-5.524V3.489h-5.243a8.037 8.037 0 0 1-1.074 1.782h2.942v3.827H7.022v3.603H1.708V9.098h-7.919V5.271h2.931C-4.402 3.853-5.077 1.979-5.077 0c0-4.979 4.232-9.01 9.442-9.01 2.724 0 5.178 1.104 6.902 2.861" style="fill:#64574b;fill-opacity:1;fill-rule:nonzero;stroke:none" transform="matrix(4.30955 0 0 -4.30955 553.71 168.724)"/><path d="M129.428 266.214h-9.073v-2.602h9.073zm0-8.053v2.815h-9.073v-2.815h-3.942v8.637c0 .96.758 2.047 2.038 2.047h14.922V258.16zM133.361 243.139h-3.949v13.664h3.95z" style="fill:#64574b;fill-opacity:1;fill-rule:nonzero;stroke:none;stroke-width:.74222" transform="matrix(5.80629 0 0 5.80629 189.271 -1282.218)"/><path d="M0 0c2.35-2.981 6.152-5.674 8.56-6.558l1.856 2.649C6.42-1.626 2.848 2.054 2.848 6.844v1.209h6.489v3.81h-18.65v-3.81h6.475V6.844c0-4.79-3.581-8.47-7.563-10.753l1.841-2.649C-6.142-5.674-2.351-2.981 0 0" style="fill:#64574b;fill-opacity:1;fill-rule:nonzero;stroke:none" transform="matrix(4.30955 0 0 -4.30955 878.453 180.64)"/><path d="M0 0c2.601 0 4.714-2.369 4.714-5.311 0-2.933-2.113-5.309-4.714-5.309-2.596 0-4.699 2.376-4.699 5.309C-4.699-2.369-2.596 0 0 0m.041-14.659c5.51 0 9.91 4.291 9.91 9.394 0 5.105-4.4 9.388-9.91 9.388-5.421 0-9.864-4.283-9.864-9.388 0-5.103 4.443-9.394 9.864-9.394" style="fill:#64574b;fill-opacity:1;fill-rule:nonzero;stroke:none" transform="matrix(4.30955 0 0 -4.30955 728.56 143.919)"/><path d="M0 0a21.478 21.478 0 0 0-7.715-1.425h-16.568v-3.951h16.312c3.118 0 6.029.58 7.971 1.584v-10.262h5.36v34.592H0Z" style="fill:#64574b;fill-opacity:1;fill-rule:nonzero;stroke:none" transform="matrix(4.30955 0 0 -4.30955 785.899 218.023)"/><path d="M0 0h17.178v8.914H-5.577V5.548h17.232V3.183H-5.577v-4.929c0-2.39 1.762-3.983 4.235-3.983h19.245v3.318H0Z" style="fill:#64574b;fill-opacity:1;fill-rule:nonzero;stroke:none" transform="matrix(4.30955 0 0 -4.30955 582.456 253.623)"/></svg>